# xmcd CD database file
#
# Track frame offsets:
#	150
#	20850
#	34983
#	54755
#	72438
#	87088
#	105963
#	122635
#	140285
#	160703
#	185848
#	208983
#
# Disc length: 2998 seconds
#
# Revision: 0
# Processed by: cddbd v1.5.1PL2 Copyright (c) Steve Scherf et al.
# Submitted via: CDex 1.50
#
DISCID=a50bb40c
DTITLE=オーノキヨフミ - Country Map
DYEAR=2006
DGENRE=JPop
TTITLE0=新宿西口摩天楼
TTITLE1=思い出にもならなそうな日
TTITLE2=ジュークBOX
TTITLE3=優等生
TTITLE4=君のこと
TTITLE5=青いストリートが呼んでいる
TTITLE6=空にお月様
TTITLE7=100マイル
TTITLE8=寝過ごして御徒町
TTITLE9=シュテラ
TTITLE10=デイドリーム
TTITLE11=ドラゴンフライ
EXTD=YEAR: 2006
EXTT0=
EXTT1=
EXTT2=
EXTT3=
EXTT4=
EXTT5=
EXTT6=
EXTT7=
EXTT8=
EXTT9=
EXTT10=
EXTT11=
PLAYORDER=
